<svg xmlns="http://www.w3.org/2000/svg" width="279" height="69" fill="none"><path d="M64.491 57.322l-13.589-9.476H33.465V21.154H64.49v36.168zM39.023 42.288h13.686l6.224 4.39V26.712h-19.91v15.576zM116.04 31.52h-.528V5.342h3.96l3.738-.069c5.085 0 8.851 1.297 11.296 3.89a12.671 12.671 0 013.404 9.046 12.906 12.906 0 01-3.946 9.587c-2.594 2.52-6.299 3.78-11.116 3.78h-3.14a93.672 93.672 0 00-3.668-.056zm7.1-21.981c-.972 0-1.987 0-3.029.11v17.577c1.154 0 2.126.07 2.96.07 2.669.157 5.295-.73 7.322-2.473a8.598 8.598 0 002.654-6.656 7.977 7.977 0 00-2.626-6.308 10.602 10.602 0 00-7.281-2.32zm27.497 21.981h-4.599V5.343h4.599V31.52zm20.564-6.947a2.964 2.964 0 00-.889-2.112 6.764 6.764 0 00-2.182-1.5 40.498 40.498 0 01-2.862-1.39 29.215 29.215 0 01-2.862-1.501 6.72 6.72 0 01-2.181-2.348 6.953 6.953 0 01-.89-3.502 6.805 6.805 0 012.209-5.127 8.491 8.491 0 015.947-2.084 9.52 9.52 0 017.476 2.78l-2.46 3.334a6.434 6.434 0 00-4.641-1.945 4.167 4.167 0 00-2.667.792 2.508 2.508 0 00-1.001 2.084c-.006.435.084.867.264 1.264.156.338.352.655.584.945.301.327.653.604 1.042.82.373.245.763.463 1.167.653l1.39.667 1.389.625c.998.448 1.96.973 2.876 1.57a6.08 6.08 0 012.223 2.362 7.271 7.271 0 01.848 3.515 6.612 6.612 0 01-2.515 5.35 9.475 9.475 0 01-6.155 2.14 13.258 13.258 0 01-5.197-1.084 6.476 6.476 0 01-3.376-3.085l2.626-3.14a7.208 7.208 0 002.779 2.168 7.823 7.823 0 003.307.778 4.28 4.28 0 002.779-.82 2.67 2.67 0 00.972-2.21zm30.581.972l1.765 3.432a8.988 8.988 0 01-3.543 2.14 14.364 14.364 0 01-4.835.82 13.383 13.383 0 01-9.726-3.71 13.154 13.154 0 01-3.738-9.727 13.696 13.696 0 013.557-9.726 12.705 12.705 0 019.837-3.835 11.44 11.44 0 017.962 2.654l-2.057 3.404a10.39 10.39 0 00-5.905-1.764 8.126 8.126 0 00-6.141 2.5 9.297 9.297 0 00-2.39 6.698 9.025 9.025 0 002.515 6.655 8.812 8.812 0 006.53 2.543 10.09 10.09 0 006.169-2.084zM226.96 5.343h4.557v15.284c0 3.765-.987 6.572-2.96 8.447a10.42 10.42 0 01-7.433 2.78 11.2 11.2 0 01-8.115-2.96c-2.028-1.96-3.029-4.822-3.029-8.56V5.344h4.572V19.46a9.722 9.722 0 001.667 6.044 5.767 5.767 0 004.877 2.14c3.891 0 5.836-2.63 5.836-7.892l.028-14.408zm24.231 19.229a2.914 2.914 0 00-.889-2.112 6.76 6.76 0 00-2.181-1.5 43.7 43.7 0 01-2.863-1.39 29.1 29.1 0 01-2.917-1.5 6.722 6.722 0 01-2.182-2.348 6.942 6.942 0 01-.889-3.502 6.805 6.805 0 012.209-5.127 8.491 8.491 0 015.947-2.084 9.561 9.561 0 017.489 2.779l-2.418 3.334a6.411 6.411 0 00-4.599-1.89 4.167 4.167 0 00-2.667.793 2.506 2.506 0 00-1.001 2.084c0 .435.09.866.264 1.264.156.338.352.655.584.945.301.327.653.604 1.042.82.373.245.763.463 1.167.653l1.389.667 1.39.625c.998.448 1.96.973 2.876 1.57a6.081 6.081 0 012.223 2.362 7.271 7.271 0 01.848 3.516 6.613 6.613 0 01-2.515 5.349 9.477 9.477 0 01-6.197 2.084 13.258 13.258 0 01-5.197-1.084 6.476 6.476 0 01-3.376-3.084l2.626-3.14a7.215 7.215 0 002.779 2.167 7.823 7.823 0 003.307.778 4.281 4.281 0 002.779-.82 2.671 2.671 0 00.972-2.209zm22.926.001a2.964 2.964 0 00-.889-2.112 6.764 6.764 0 00-2.182-1.501 40.498 40.498 0 01-2.862-1.39 29.215 29.215 0 01-2.862-1.5 6.732 6.732 0 01-2.14-2.418 6.942 6.942 0 01-.889-3.501 6.806 6.806 0 012.209-5.127 8.491 8.491 0 015.947-2.084 9.52 9.52 0 017.475 2.779l-2.501 3.404a6.435 6.435 0 00-4.641-1.946 4.167 4.167 0 00-2.667.792 2.508 2.508 0 00-1.001 2.085c.001.435.09.865.264 1.264.156.337.352.655.584.945.301.327.653.604 1.042.82.373.245.763.463 1.167.653l1.39.667 1.389.625c.998.448 1.96.973 2.876 1.57a6.08 6.08 0 012.223 2.362 7.26 7.26 0 01.848 3.515 6.612 6.612 0 01-2.515 5.35 9.475 9.475 0 01-6.155 2.14 13.258 13.258 0 01-5.197-1.084 6.476 6.476 0 01-3.376-3.085l2.626-3.14a7.208 7.208 0 002.779 2.167 7.823 7.823 0 003.307.779 4.28 4.28 0 002.779-.82 2.67 2.67 0 00.972-2.21zM116.04 65.964h-.528V39.787h3.96l3.738-.07c5.085 0 8.851 1.297 11.296 3.89a12.671 12.671 0 013.404 9.046 12.891 12.891 0 01-3.946 9.601c-2.598 2.53-6.294 3.78-11.116 3.78h-3.14l-3.668-.07zm7.1-21.995c-.972 0-1.987 0-3.029.111v17.577c1.154 0 2.126.083 2.96.083a10.351 10.351 0 007.322-2.473 8.597 8.597 0 002.654-6.656 8.006 8.006 0 00-2.626-6.322 10.672 10.672 0 00-7.281-2.32zm22.703 21.995h-4.64l11.115-26.26h4.03l11.115 26.26h-4.891l-2.779-6.697h-11.115l-2.835 6.697zm12.158-11.004l-3.821-9.31-3.849 9.31h7.67zm18.466-10.88h-8.489v-4.293h21.564v4.293h-8.476v21.884h-4.599V44.08zm18.285 21.884h-4.627l11.116-26.26h4.043l11.115 26.26h-4.904l-2.779-6.697h-11.185l-2.779 6.697zM206.91 54.96l-3.808-9.31-3.834 9.31h7.642z" fill="#343B86"/><path d="M73.509.007H33.465v17.938h5.558V5.565h34.486a18.369 18.369 0 110 36.723H67.7v5.558h5.808a23.926 23.926 0 100-47.84zM58.933 57.322v6.113h-34.43a18.368 18.368 0 110-36.723h5.724v-5.558h-5.724a23.926 23.926 0 100 47.84H64.49v-7.768l-5.558-3.904z" fill="#343B86"/></svg>