<?xml version="1.0" encoding="UTF-8"?>
<svg id="a" xmlns="http://www.w3.org/2000/svg" viewBox="0 0 112 47"><g><g id="b"><g id="c"><path d="M23.65,24.74c-.44-.75-.62-1.06-1.06-1.85-1.16-2.03-1.47-2.59-1.87-2.77-.11-.05-.23-.08-.36-.1v4.72h-2.2V13.46h4.21c1.73-.1,3.21,1.22,3.31,2.95,0,.12,0,.25,0,.37,0,1.69-1.12,3.09-2.52,3.12,.18,.13,.34,.29,.47,.47,.65,.81,2.72,4.39,2.72,4.39l-2.69-.02Zm-1.19-9.29c-.42-.12-.85-.18-1.28-.16h-.81v3.06h.76c.98,0,1.4-.1,1.73-.38,.3-.31,.46-.73,.44-1.16,.06-.59-.28-1.15-.84-1.36Z" fill="#434245"/><path d="M34.69,24.74l-.8-2.66h-3.32l-.8,2.66h-2.37l3.7-11.33h2.46l3.56,11.33h-2.44Zm-1.96-6.82c-.12-.52-.46-2-.46-2,0,0-.32,1.33-.54,2.18s-.36,1.35-.58,2.1h2.21s-.4-1.19-.64-2.28Z" fill="#434245"/><path d="M45.9,23.07c-.64,.91-1.64,1.5-2.75,1.62-.42,.03-.96,.06-1.62,.06h-2.74V13.46h2.28c.65,0,1.51,.03,1.97,.06,.93,.06,1.81,.46,2.47,1.12,1.05,1.03,1.55,2.47,1.55,4.51,.05,1.4-.35,2.77-1.15,3.92Zm-1.98-6.88c-.36-.64-1.06-1.01-1.79-.95h-1.04v7.66h1.23c1.5,0,2.18-1.16,2.18-3.55,0-1.32-.12-2.42-.57-3.17h-.01Z" fill="#434245"/><path d="M55.18,24.74l-.8-2.66h-3.32l-.8,2.66h-2.38l3.71-11.33h2.46l3.56,11.33h-2.44Zm-1.97-6.82c-.11-.52-.45-2-.45-2,0,0-.33,1.33-.54,2.18s-.36,1.35-.58,2.1h2.21s-.39-1.19-.64-2.28Z" fill="#434245"/><path d="M64.97,24.74c-.44-.75-.62-1.06-1.06-1.85-1.12-2.03-1.46-2.59-1.87-2.77-.11-.05-.23-.08-.36-.1v4.72h-2.23V13.46h4.21c1.73-.11,3.21,1.21,3.32,2.94,0,.13,0,.25,0,.38,0,1.69-1.12,3.09-2.52,3.12,.18,.13,.34,.29,.47,.47,.65,.81,2.72,4.39,2.72,4.39l-2.68-.02Zm-1.16-9.32c-.42-.12-.85-.18-1.29-.16h-.81v3.06h.76c.98,0,1.4-.1,1.73-.38,.3-.31,.46-.73,.44-1.16,.04-.6-.32-1.14-.88-1.34l.05-.02Z" fill="#434245"/></g></g><g id="d"><g id="e"><path d="M8.43,16.97l-1.55,3.64C1.89,18.4-.36,12.55,1.85,7.55,4.02,2.67,9.67,.39,14.62,2.39l-1.55,3.65c-2.97-1.4-6.51-.14-7.91,2.83s-.14,6.51,2.83,7.91c.15,.07,.3,.14,.46,.19" fill="#434245"/><path d="M10.75,13.48c1.09,0,1.98-.88,1.99-1.98,0-1.09-.88-1.98-1.98-1.99-1.09,0-1.98,.88-1.99,1.98h0c0,1.1,.89,1.98,1.98,1.99" fill="#a52055"/></g></g></g><g><path d="M24.41,30.69l-.26,.93h1.36l-.05,.17h-1.36l-1.11,4.15c-.57,2.13-1.94,4.06-3.5,4.06-.7,0-1.25-.32-1.25-.99,0-.4,.27-.76,.75-.76,.31,0,.45,.16,.45,.39,0,.33-.18,.54-.18,.82,0,.24,.1,.37,.34,.37,.57,0,1.14-.89,1.7-2.98l1.38-5.05h-1.03l.04-.17h1.04l.18-.67c.53-1.88,1.99-3.37,3.44-3.37,1.03,0,1.46,.65,1.46,1.19,0,.34-.26,.75-.78,.75-.44,0-.53-.24-.53-.46,.01-.4,.4-.56,.4-.89,0-.29-.24-.4-.51-.4-1.16,0-1.75,2.13-1.98,2.95Z" fill="#1d1e1c"/><path d="M28.57,31.47c1.26,0,1.92,1.06,1.92,2.13,0,1.86-1.76,3.44-3.39,3.44-1.24,0-1.96-.95-1.96-2.18,0-1.68,1.61-3.39,3.42-3.39Zm-1.53,5.39c1.39,0,2.23-3.28,2.23-4.28,0-.6-.22-.94-.73-.94-1.25,0-2.18,3.07-2.18,4.34,0,.62,.27,.88,.68,.88Z" fill="#1d1e1c"/><path d="M33.33,34.25l-.93,2.62h-1.28l1.33-3.77c.15-.43,.29-.87,.4-1.31h-.94l.06-.17h2.19c-.09,.34-.26,.86-.42,1.31l.02,.02c.34-.48,1.04-1.41,1.75-1.41,.65,0,.87,.48,.87,.93,0,.66-.48,.84-.78,.84-.24,0-.45-.13-.45-.43,0-.4,.43-.56,.43-.92,0-.15-.1-.23-.23-.23-.51,0-1.57,1.24-2.02,2.51Z" fill="#1d1e1c"/><path d="M43.2,36.87c1.49,0,2.46-1.16,2.84-1.88l.17,.09c-.21,.38-1.11,1.97-3.06,1.97-2.24,0-3.12-1.71-3.12-3.45,0-3.08,3.01-5.59,5.39-5.59,.9,0,1.61,.48,2.13,.48,.26,0,.42-.16,.51-.35l.18,.04-.84,2.36h-.16c.02-.16,.05-.51,.05-.83,0-1.04-1.08-1.52-1.9-1.52-2.68,0-3.92,4.93-3.92,6.86,0,1.31,.43,1.83,1.72,1.83Z" fill="#1d1e1c"/><path d="M49.62,28.16h3.83l-.05,.17h-1.06l-1.76,4.89c-.24,.68-.38,1.26-.38,1.88,0,1.11,.67,1.71,1.76,1.71,1.87,0,2.82-1.54,3.25-2.9l1.74-5.59h-1.17l.05-.17h2.42l-.05,.17h-1.05l-1.8,5.75c-.64,2.02-1.87,2.96-3.72,2.96s-2.8-1.04-2.8-2.41c0-.73,.16-1.38,.4-2.07l1.52-4.23h-1.17l.05-.17Z" fill="#1d1e1c"/><path d="M60.66,28.34h-1.19l.05-.17h3.84l-.05,.17h-1.06l-3,8.36h2.37c1.46,0,2.48-1.72,2.76-2.23h.17l-.86,2.4h-7.14l.05-.17h1.05l3-8.36Z" fill="#1d1e1c"/><path d="M70.05,28.34h-.88c-1.38,0-2.45,1.75-2.75,2.24h-.17l.86-2.41h7.57l-.86,2.41h-.17c.07-.32,.11-.73,.11-1.12,0-.62-.39-1.11-1.37-1.11h-.75l-3,8.36h1.17l-.05,.17h-3.83l.05-.17h1.06l3-8.36Z" fill="#1d1e1c"/><path d="M75.9,28.16h3.83l-.05,.17h-1.06l-1.76,4.89c-.24,.68-.38,1.26-.38,1.88,0,1.11,.67,1.71,1.76,1.71,1.87,0,2.82-1.54,3.25-2.9l1.74-5.59h-1.17l.05-.17h2.42l-.05,.17h-1.05l-1.8,5.75c-.64,2.02-1.87,2.96-3.72,2.96s-2.8-1.04-2.8-2.41c0-.73,.16-1.38,.4-2.07l1.52-4.23h-1.17l.05-.17Z" fill="#1d1e1c"/><path d="M86.93,28.34h-1.19l.07-.17h3.13c1.21,0,2.82,.44,2.82,1.9,0,1.61-1.91,2.03-3.47,2.12l-.02,.04c1,.07,2.29,.28,2.29,1.52,0,.82-.31,1.49-.31,2.3,0,.45,.2,.75,.65,.75,.11,0,.24-.02,.31-.05l.05,.16c-.15,.04-.33,.06-.64,.06-1.55,0-1.93-.35-1.93-1.32,0-.24,.07-.66,.15-1.1,.06-.43,.13-.88,.13-1.19,0-.6-.29-1.09-1.69-1.09h-.15l-1.6,4.45h1.19l-.06,.17h-3.81l.06-.17h1.04l2.98-8.36Zm.26,3.74h.46c.71,0,1.19-.11,1.48-.31,.45-.31,1-.88,1-2.08,0-.92-.56-1.36-1.37-1.36h-.23l-1.34,3.74Z" fill="#1d1e1c"/><path d="M96.16,28.34h-1.2l.05-.17h6.82l-.75,2.08h-.17c.06-.18,.15-.57,.15-.88,0-.6-.29-1.03-1.22-1.03h-2.09l-1.36,3.78h.66c1.17,0,1.83-1.26,1.99-1.55h.17l-1.28,3.56h-.17c.07-.2,.16-.59,.16-.89,0-.61-.53-.94-1.25-.94h-.34l-1.58,4.41h2.37c1.46,0,2.49-1.75,2.76-2.23h.17l-.86,2.4h-7.14l.05-.17h1.05l3-8.36Z" fill="#1d1e1c"/></g></svg>