<?xml version="1.0" encoding="UTF-8" standalone="no"?>
<!-- Created with Inkscape (http://www.inkscape.org/) -->

<svg
   xmlns:dc="http://purl.org/dc/elements/1.1/"
   xmlns:cc="http://creativecommons.org/ns#"
   xmlns:rdf="http://www.w3.org/1999/02/22-rdf-syntax-ns#"
   xmlns:svg="http://www.w3.org/2000/svg"
   xmlns="http://www.w3.org/2000/svg"
   xmlns:sodipodi="http://sodipodi.sourceforge.net/DTD/sodipodi-0.dtd"
   xmlns:inkscape="http://www.inkscape.org/namespaces/inkscape"
   width="41.782917mm"
   height="11.704917mm"
   viewBox="0 0 41.782917 11.704917"
   version="1.1"
   id="svg8"
   inkscape:version="0.92.3 (2405546, 2018-03-11)"
   sodipodi:docname="preVIEW.svg">
  <defs
     id="defs2" />
  <sodipodi:namedview
     id="base"
     pagecolor="#ffffff"
     bordercolor="#666666"
     borderopacity="1.0"
     inkscape:pageopacity="0.0"
     inkscape:pageshadow="2"
     inkscape:zoom="2.8"
     inkscape:cx="28.135999"
     inkscape:cy="-36.269274"
     inkscape:document-units="mm"
     inkscape:current-layer="layer1"
     showgrid="false"
     fit-margin-top="1"
     fit-margin-left="1"
     fit-margin-right="1"
     fit-margin-bottom="1"
     inkscape:window-width="1869"
     inkscape:window-height="1025"
     inkscape:window-x="51"
     inkscape:window-y="27"
     inkscape:window-maximized="1" />
  <metadata
     id="metadata5">
    <rdf:RDF>
      <cc:Work
         rdf:about="">
        <dc:format>image/svg+xml</dc:format>
        <dc:type
           rdf:resource="http://purl.org/dc/dcmitype/StillImage" />
        <dc:title></dc:title>
      </cc:Work>
    </rdf:RDF>
  </metadata>
  <g
     inkscape:label="Ebene 1"
     inkscape:groupmode="layer"
     id="layer1"
     transform="translate(-34.461503,-59.470562)">
    <g
       aria-label="preVIEW"
       transform="scale(0.26458333)"
       style="font-style:normal;font-weight:normal;font-size:40px;line-height:1.25;font-family:sans-serif;letter-spacing:0.87px;word-spacing:0px;fill:#000000;fill-opacity:1;stroke:none"
       id="flowRoot831">
      <path
         d="m 137.54773,265.23016 h -3.52 v -27.88 h 2.96 l 0.36,2.64 h 0.12 q 1.96,-3.12 6,-3.12 3.2,0 5.2,2.48 2,2.48 2,7.68 0,6 -2.2,8.68 -2.2,2.68 -5.76,2.68 -1.72,0 -3.08,-0.68 -1.36,-0.72 -2.04,-1.84 h -0.04 z m -0.12,-17.76 q 0,4.48 1.2,6.36 1.24,1.88 3.52,1.88 4.84,0 4.84,-8.6 0,-7.56 -4.48,-7.56 -5.08,0 -5.08,7.92 z"
         style="font-style:normal;font-variant:normal;font-weight:normal;font-stretch:normal;font-family:'Tablet Gothic Narrow';-inkscape-font-specification:'Tablet Gothic Narrow';fill:#413f4a;fill-opacity:0.98431373"
         id="path1055"
         inkscape:connector-curvature="0" />
      <path
         d="m 169.03524,243.99016 -3.36,0.2 q 0.28,-2.48 -0.24,-3.44 -0.52,-0.96 -1.88,-0.96 -2.16,0 -3.16,1.96 -1,1.96 -1,5.04 v 11.12 h -3.56 v -20.56 h 3.28 l 0.16,3 h 0.08 q 1.52,-3.48 5.24,-3.48 2.52,0 3.72,1.76 1.2,1.76 0.72,5.36 z"
         style="font-style:normal;font-variant:normal;font-weight:normal;font-stretch:normal;font-family:'Tablet Gothic Narrow';-inkscape-font-specification:'Tablet Gothic Narrow';fill:#413f4a;fill-opacity:0.98431373"
         id="path1057"
         inkscape:connector-curvature="0" />
      <path
         d="m 185.15524,251.03016 3,0.28 q -0.2,2.04 -0.96,3.52 -0.76,1.48 -1.88,2.2 -1.12,0.72 -2.28,1.04 -1.12,0.32 -2.44,0.32 -8.56,0 -8.56,-10.56 0,-5.12 2.28,-8.04 2.32,-2.92 6.64,-2.92 3.64,0 5.48,2.36 1.88,2.36 1.88,6.76 0,1.12 -0.12,2.36 h -12.44 q 0,7.24 4.92,7.24 3.92,0 4.48,-4.56 z m -9.4,-5.2 h 9.12 q 0.2,-6.28 -4.28,-6.28 -2.4,0 -3.6,1.8 -1.16,1.76 -1.24,4.48 z"
         style="font-style:normal;font-variant:normal;font-weight:normal;font-stretch:normal;font-family:'Tablet Gothic Narrow';-inkscape-font-specification:'Tablet Gothic Narrow';fill:#413f4a;fill-opacity:0.98431373"
         id="path1059"
         inkscape:connector-curvature="0" />
      <path
         d="m 210.15273,228.55016 h 3.84 l -9,29.36 h -4.88 l -9.08,-29.36 h 3.92 l 7.64,25.92 z"
         style="font-style:normal;font-variant:normal;font-weight:normal;font-stretch:normal;font-family:'Tablet Gothic Narrow';-inkscape-font-specification:'Tablet Gothic Narrow';fill:#d01d2c;fill-opacity:1"
         id="path1061"
         inkscape:connector-curvature="0" />
      <path
         d="m 223.50774,231.39016 v 23.68 h 2.92 v 2.84 h -9.52 v -2.84 h 2.84 v -23.68 h -2.84 v -2.84 h 9.52 v 2.84 z"
         style="font-style:normal;font-variant:normal;font-weight:normal;font-stretch:normal;font-family:'Tablet Gothic Narrow';-inkscape-font-specification:'Tablet Gothic Narrow';fill:#d01d2c;fill-opacity:1"
         id="path1063"
         inkscape:connector-curvature="0" />
      <path
         d="m 246.25336,241.31016 v 3.04 h -9.92 v 10.44 h 12 v 3.12 h -15.8 v -29.36 h 14.92 v 3.12 h -11.12 v 9.64 z"
         style="font-style:normal;font-variant:normal;font-weight:normal;font-stretch:normal;font-family:'Tablet Gothic Narrow';-inkscape-font-specification:'Tablet Gothic Narrow';fill:#d01d2c;fill-opacity:1"
         id="path1065"
         inkscape:connector-curvature="0" />
      <path
         d="m 278.06836,257.91016 h -4.96 l -5.24,-23.76 h -0.16 l -5.08,23.76 h -5 l -6.36,-29.36 h 3.88 l 4.92,25.76 h 0.16 l 5.6,-25.76 h 4 l 5.72,25.76 h 0.16 l 4.92,-25.76 h 3.76 z"
         style="font-style:normal;font-variant:normal;font-weight:normal;font-stretch:normal;font-family:'Tablet Gothic Narrow';-inkscape-font-specification:'Tablet Gothic Narrow';fill:#d01d2c;fill-opacity:1"
         id="path1067"
         inkscape:connector-curvature="0" />
    </g>
  </g>
</svg>
